<svg width="41" height="41" viewBox="0 0 41 41" fill="none" xmlns="http://www.w3.org/2000/svg">
<path d="M7.88053 5.67318C7.2617 5.67318 6.6682 5.91901 6.23062 6.35659C5.79303 6.79418 5.5472 7.38767 5.5472 8.00651L5.5472 10.6732C5.5472 11.1152 5.37161 11.5391 5.05904 11.8517C4.74648 12.1642 4.32256 12.3398 3.88053 12.3398C3.43851 12.3398 3.01458 12.1642 2.70202 11.8517C2.38946 11.5391 2.21387 11.1152 2.21387 10.6732L2.21387 8.00651C2.21387 6.50362 2.81089 5.06228 3.8736 3.99957C4.9363 2.93687 6.37764 2.33984 7.88053 2.33984L10.5472 2.33984C10.9892 2.33984 11.4132 2.51544 11.7257 2.828C12.0383 3.14056 12.2139 3.56448 12.2139 4.00651C12.2139 4.44854 12.0383 4.87246 11.7257 5.18502C11.4132 5.49758 10.9892 5.67318 10.5472 5.67318L7.88053 5.67318ZM28.8805 4.00651C28.8805 3.56448 29.0561 3.14056 29.3687 2.828C29.6812 2.51544 30.1052 2.33984 30.5472 2.33984L33.2139 2.33984C34.7168 2.33984 36.1581 2.93687 37.2208 3.99957C38.2835 5.06228 38.8805 6.50362 38.8805 8.00651V10.6732C38.8805 11.1152 38.7049 11.5391 38.3924 11.8517C38.0798 12.1642 37.6559 12.3398 37.2139 12.3398C36.7718 12.3398 36.3479 12.1642 36.0354 11.8517C35.7228 11.5391 35.5472 11.1152 35.5472 10.6732V8.00651C35.5472 7.38767 35.3014 6.79418 34.8638 6.35659C34.4262 5.91901 33.8327 5.67318 33.2139 5.67318L30.5472 5.67318C30.1052 5.67318 29.6812 5.49758 29.3687 5.18502C29.0561 4.87246 28.8805 4.44854 28.8805 4.00651ZM3.88053 29.0065C4.32256 29.0065 4.74648 29.1821 5.05904 29.4947C5.37161 29.8072 5.5472 30.2311 5.5472 30.6732L5.5472 33.3398C5.5472 33.9587 5.79303 34.5522 6.23062 34.9898C6.6682 35.4273 7.2617 35.6732 7.88053 35.6732H10.5472C10.9892 35.6732 11.4132 35.8488 11.7257 36.1613C12.0383 36.4739 12.2139 36.8978 12.2139 37.3398C12.2139 37.7819 12.0383 38.2058 11.7257 38.5184C11.4132 38.8309 10.9892 39.0065 10.5472 39.0065H7.88053C6.37764 39.0065 4.9363 38.4095 3.8736 37.3468C2.81089 36.2841 2.21387 34.8427 2.21387 33.3398L2.21387 30.6732C2.21387 30.2311 2.38946 29.8072 2.70202 29.4947C3.01458 29.1821 3.43851 29.0065 3.88053 29.0065ZM37.2139 29.0065C37.6559 29.0065 38.0798 29.1821 38.3924 29.4947C38.7049 29.8072 38.8805 30.2311 38.8805 30.6732V33.3398C38.8805 34.8427 38.2835 36.2841 37.2208 37.3468C36.1581 38.4095 34.7168 39.0065 33.2139 39.0065H30.5472C30.1052 39.0065 29.6812 38.8309 29.3687 38.5184C29.0561 38.2058 28.8805 37.7819 28.8805 37.3398C28.8805 36.8978 29.0561 36.4739 29.3687 36.1613C29.6812 35.8488 30.1052 35.6732 30.5472 35.6732H33.2139C33.8327 35.6732 34.4262 35.4273 34.8638 34.9898C35.3014 34.5522 35.5472 33.9587 35.5472 33.3398V30.6732C35.5472 30.2311 35.7228 29.8072 36.0354 29.4947C36.3479 29.1821 36.7718 29.0065 37.2139 29.0065ZM30.5472 14.0065C30.9892 14.0065 31.4131 14.1821 31.7257 14.4947C32.0383 14.8072 32.2139 15.2311 32.2139 15.6732V25.6732C32.2139 26.1152 32.0383 26.5391 31.7257 26.8517C31.4131 27.1642 30.9892 27.3398 30.5472 27.3398C30.1052 27.3398 29.6812 27.1642 29.3687 26.8517C29.0561 26.5391 28.8805 26.1152 28.8805 25.6732V15.6732C28.8805 15.2311 29.0561 14.8072 29.3687 14.4947C29.6812 14.1821 30.1052 14.0065 30.5472 14.0065ZM25.5472 15.6732C25.5472 15.2311 25.3716 14.8072 25.059 14.4947C24.7465 14.1821 24.3226 14.0065 23.8805 14.0065C23.4385 14.0065 23.0146 14.1821 22.702 14.4947C22.3895 14.8072 22.2139 15.2311 22.2139 15.6732V25.6732C22.2139 26.1152 22.3895 26.5391 22.702 26.8517C23.0146 27.1642 23.4385 27.3398 23.8805 27.3398C24.3226 27.3398 24.7465 27.1642 25.059 26.8517C25.3716 26.5391 25.5472 26.1152 25.5472 25.6732V15.6732ZM17.2139 14.0065C17.6559 14.0065 18.0798 14.1821 18.3924 14.4947C18.7049 14.8072 18.8805 15.2311 18.8805 15.6732V25.6732C18.8805 26.1152 18.7049 26.5391 18.3924 26.8517C18.0798 27.1642 17.6559 27.3398 17.2139 27.3398C16.7718 27.3398 16.3479 27.1642 16.0354 26.8517C15.7228 26.5391 15.5472 26.1152 15.5472 25.6732L15.5472 15.6732C15.5472 15.2311 15.7228 14.8072 16.0354 14.4947C16.3479 14.1821 16.7718 14.0065 17.2139 14.0065ZM12.2139 15.6732C12.2139 15.2311 12.0383 14.8072 11.7257 14.4947C11.4132 14.1821 10.9892 14.0065 10.5472 14.0065C10.1052 14.0065 9.68125 14.1821 9.36869 14.4947C9.05613 14.8072 8.88053 15.2311 8.88053 15.6732L8.88053 25.6732C8.88053 26.1152 9.05613 26.5391 9.36869 26.8517C9.68125 27.1642 10.1052 27.3398 10.5472 27.3398C10.9892 27.3398 11.4132 27.1642 11.7257 26.8517C12.0383 26.5391 12.2139 26.1152 12.2139 25.6732L12.2139 15.6732Z" fill="white"/>
</svg>
