<svg width="41" height="41" viewBox="0 0 41 41" fill="none" xmlns="http://www.w3.org/2000/svg">
<mask id="mask0_264_2087" style="mask-type:luminance" maskUnits="userSpaceOnUse" x="2" y="3" width="37" height="36">
<path d="M20.4225 37.3394C22.6116 37.3421 24.7797 36.9123 26.8021 36.0745C28.8246 35.2368 30.6616 34.0076 32.2075 32.4578C33.7574 30.9118 34.9865 29.0748 35.8243 27.0524C36.662 25.0299 37.0919 22.8619 37.0892 20.6728C37.0919 18.4837 36.662 16.3156 35.8243 14.2932C34.9865 12.2707 33.7574 10.4338 32.2075 8.88778C30.6616 7.33792 28.8246 6.1088 26.8021 5.27105C24.7797 4.43329 22.6116 4.00342 20.4225 4.00612C18.2334 4.00342 16.0654 4.43329 14.0429 5.27105C12.0205 6.1088 10.1835 7.33792 8.63754 8.88778C7.08767 10.4338 5.85855 12.2707 5.0208 14.2932C4.18305 16.3156 3.75317 18.4837 3.75587 20.6728C3.75317 22.8619 4.18305 25.0299 5.0208 27.0524C5.85855 29.0748 7.08767 30.9118 8.63754 32.4578C10.1835 34.0076 12.0205 35.2368 14.0429 36.0745C16.0654 36.9123 18.2334 37.3421 20.4225 37.3394Z" fill="white" stroke="white" stroke-width="2" stroke-linejoin="round"/>
<path d="M13.7559 20.6729L18.7559 25.6729L28.7559 15.6729" stroke="black" stroke-width="3" stroke-linecap="round" stroke-linejoin="round"/>
</mask>
<g mask="url(#mask0_264_2087)">
<path d="M0.421875 0.672852H40.4219V40.6729H0.421875V0.672852Z" fill="#35A53C"/>
</g>
</svg>
