<svg width="40" height="40" viewBox="0 0 40 40" fill="none" xmlns="http://www.w3.org/2000/svg">
<path fill-rule="evenodd" clip-rule="evenodd" d="M5.86133 28.3334L17.6247 8.69503C17.8724 8.28697 18.221 7.94962 18.637 7.71551C19.053 7.48139 19.5223 7.3584 19.9997 7.3584C20.477 7.3584 20.9463 7.48139 21.3623 7.71551C21.7783 7.94962 22.127 8.28697 22.3747 8.69503L34.138 28.3334C34.3804 28.7534 34.5086 29.2296 34.5098 29.7146C34.5111 30.1995 34.3854 30.6764 34.1453 31.0977C33.9051 31.519 33.5589 31.8702 33.1409 32.1162C32.723 32.3622 32.2479 32.4945 31.763 32.5H8.23633C7.7512 32.495 7.27584 32.363 6.85762 32.1171C6.43939 31.8712 6.0929 31.52 5.85264 31.0985C5.61239 30.677 5.48677 30.1999 5.48829 29.7148C5.48982 29.2296 5.61844 28.7533 5.86133 28.3334ZM19.9997 15C20.4417 15 20.8656 15.1756 21.1782 15.4882C21.4907 15.8007 21.6663 16.2247 21.6663 16.6667V21.6667C21.6663 22.1087 21.4907 22.5326 21.1782 22.8452C20.8656 23.1578 20.4417 23.3334 19.9997 23.3334C19.5576 23.3334 19.1337 23.1578 18.8212 22.8452C18.5086 22.5326 18.333 22.1087 18.333 21.6667V16.6667C18.333 16.2247 18.5086 15.8007 18.8212 15.4882C19.1337 15.1756 19.5576 15 19.9997 15ZM18.333 26.6667C18.333 26.2247 18.5086 25.8007 18.8212 25.4882C19.1337 25.1756 19.5576 25 19.9997 25H20.013C20.455 25 20.879 25.1756 21.1915 25.4882C21.5041 25.8007 21.6797 26.2247 21.6797 26.6667C21.6797 27.1087 21.5041 27.5326 21.1915 27.8452C20.879 28.1578 20.455 28.3334 20.013 28.3334H19.9997C19.5576 28.3334 19.1337 28.1578 18.8212 27.8452C18.5086 27.5326 18.333 27.1087 18.333 26.6667Z" fill="#DE1443"/>
</svg>
