<svg width="33" height="33" viewBox="0 0 33 33" fill="none" xmlns="http://www.w3.org/2000/svg">
<path d="M16.5467 21.3394C15.309 21.3394 14.122 20.8477 13.2468 19.9725C12.3717 19.0974 11.88 17.9104 11.88 16.6727C11.88 15.435 12.3717 14.248 13.2468 13.3729C14.122 12.4977 15.309 12.006 16.5467 12.006C17.7843 12.006 18.9713 12.4977 19.8465 13.3729C20.7217 14.248 21.2133 15.435 21.2133 16.6727C21.2133 17.9104 20.7217 19.0974 19.8465 19.9725C18.9713 20.8477 17.7843 21.3394 16.5467 21.3394ZM26.4533 17.966C26.5067 17.5394 26.5467 17.1127 26.5467 16.6727C26.5467 16.2327 26.5067 15.7927 26.4533 15.3394L29.2667 13.166C29.52 12.966 29.5867 12.606 29.4267 12.3127L26.76 7.69936C26.6 7.40603 26.24 7.28603 25.9467 7.40603L22.6267 8.73936C21.9333 8.21936 21.2133 7.76603 20.3733 7.43269L19.88 3.89936C19.8529 3.74232 19.7711 3.59993 19.6491 3.49743C19.5271 3.39493 19.3727 3.33893 19.2133 3.33936L13.88 3.33936C13.5467 3.33936 13.2667 3.57936 13.2133 3.89936L12.72 7.43269C11.88 7.76603 11.16 8.21936 10.4667 8.73936L7.14666 7.40603C6.85333 7.28603 6.49333 7.40602 6.33333 7.69936L3.66666 12.3127C3.49333 12.606 3.57333 12.966 3.82666 13.166L6.63999 15.3394C6.58666 15.7927 6.54666 16.2327 6.54666 16.6727C6.54666 17.1127 6.58666 17.5394 6.63999 17.966L3.82666 20.1794C3.57332 20.3794 3.49332 20.7394 3.66666 21.0327L6.33332 25.646C6.49332 25.9394 6.85332 26.046 7.14666 25.9394L10.4667 24.5927C11.16 25.126 11.88 25.5794 12.72 25.9127L13.2133 29.446C13.2667 29.766 13.5467 30.006 13.88 30.006L19.2133 30.006C19.5467 30.006 19.8267 29.766 19.88 29.446L20.3733 25.9127C21.2133 25.566 21.9333 25.126 22.6267 24.5927L25.9467 25.9394C26.24 26.046 26.6 25.9394 26.76 25.646L29.4267 21.0327C29.5867 20.7394 29.52 20.3794 29.2667 20.1794L26.4533 17.966Z" fill="white"/>
</svg>
