<svg width="41" height="40" viewBox="0 0 41 40" fill="none" xmlns="http://www.w3.org/2000/svg">
<g clip-path="url(#clip0_264_2149)">
<path fill-rule="evenodd" clip-rule="evenodd" d="M4.84968 19.9999C4.84823 16.4221 6.04073 12.946 8.23823 10.1225C10.4357 7.29899 13.5126 5.2895 16.9813 4.4124C20.45 3.5353 24.1122 3.84075 27.3877 5.28036C30.6631 6.71996 33.3646 9.2114 35.064 12.3599C35.2481 12.6998 35.5375 12.9707 35.8888 13.1321C36.2401 13.2934 36.6342 13.3364 37.012 13.2546C37.3898 13.1727 37.7308 12.9706 37.9839 12.6784C38.2369 12.3862 38.3884 12.0198 38.4154 11.6342C38.6411 8.35993 38.5725 6.43993 38.1154 3.05707C38.0841 2.82463 38.0073 2.60064 37.8894 2.39788C37.7715 2.19513 37.6148 2.01758 37.4283 1.87537C37.2418 1.73316 37.0291 1.62909 36.8023 1.56908C36.5756 1.50907 36.3393 1.49432 36.1068 1.52564C35.8744 1.55697 35.6504 1.63378 35.4476 1.75168C35.2449 1.86957 35.0673 2.02625 34.9251 2.21276C34.7829 2.39927 34.6788 2.61197 34.6188 2.83871C34.5588 3.06544 34.5441 3.30178 34.5754 3.53422C34.7097 4.53422 34.8097 5.38279 34.8725 6.17422C32.1327 3.4087 28.633 1.51965 24.8175 0.746878C21.0021 -0.0258977 17.0431 0.352455 13.4431 1.8339C9.84313 3.31535 6.76451 5.83308 4.59809 9.06747C2.43168 12.3019 1.27517 16.107 1.27539 19.9999C1.27539 20.4735 1.46353 20.9277 1.79841 21.2626C2.1333 21.5975 2.5875 21.7856 3.06111 21.7856C3.53471 21.7856 3.98891 21.5975 4.3238 21.2626C4.65868 20.9277 4.84682 20.4735 4.84682 19.9999M40.5611 19.9999C40.5611 19.5263 40.373 19.0721 40.0381 18.7372C39.7032 18.4024 39.249 18.2142 38.7754 18.2142C38.3018 18.2142 37.8476 18.4024 37.5127 18.7372C37.1778 19.0721 36.9897 19.5263 36.9897 19.9999C36.9901 23.5697 35.802 27.0381 33.6128 29.8578C31.4236 32.6775 28.3579 34.6881 24.8994 35.5724C21.4408 36.4567 17.7863 36.1643 14.5123 34.7414C11.2384 33.3185 8.53133 30.8461 6.81825 27.7142C6.63304 27.3753 6.34293 27.1055 5.99144 26.9454C5.63994 26.7853 5.24601 26.7435 4.86873 26.8262C4.49145 26.9089 4.15117 27.1118 3.89892 27.4043C3.64667 27.6968 3.49606 28.0632 3.46968 28.4485C3.24396 31.7228 3.31253 33.6428 3.76968 37.0256C3.84775 37.4816 4.09975 37.8895 4.47259 38.1634C4.84543 38.4373 5.31002 38.5558 5.7685 38.494C6.22698 38.4321 6.64356 38.1948 6.9305 37.8319C7.21745 37.469 7.35236 37.0089 7.30682 36.5485C7.18203 35.6581 7.082 34.7644 7.00682 33.8685C9.75135 36.6228 13.2516 38.5006 17.0642 39.2641C20.8768 40.0276 24.8302 39.6424 28.4237 38.1572C32.0172 36.6721 35.089 34.1539 37.2502 30.9216C39.4114 27.6892 40.5647 23.8882 40.564 19.9999M15.3268 9.99422C13.7554 10.7742 12.3268 11.8342 10.6725 13.2971C10.4209 13.4976 10.2308 13.765 10.124 14.0685C8.85825 17.5456 8.8611 21.6142 9.8411 25.0399C10.0954 25.9228 10.6182 26.6685 11.2754 27.2142C14.3211 29.7571 16.5154 30.7485 19.9382 31.4971C20.0659 31.5237 20.1954 31.5456 20.3268 31.5628C20.712 31.7003 21.133 31.7003 21.5182 31.5628C21.6478 31.5437 21.7773 31.5218 21.9068 31.4971C25.3297 30.7485 27.524 29.7571 30.5697 27.2142C31.2268 26.6656 31.7497 25.9228 32.004 25.0399C32.9782 21.6342 32.9868 17.5942 31.7411 14.1285C31.6462 13.8238 31.468 13.5517 31.2268 13.3428C29.5525 11.8571 28.1097 10.7828 26.5211 9.99422C24.924 9.19993 23.2754 8.73707 21.2497 8.36565C21.0345 8.32401 20.8134 8.32401 20.5982 8.36565C18.5697 8.73707 16.924 9.19993 15.3268 9.99422ZM22.7097 27.6171C24.7097 27.0342 26.1954 26.2171 28.2811 24.4742C28.4177 24.3667 28.5183 24.2202 28.5697 24.0542C29.1934 21.8407 29.3048 19.5143 28.8954 17.2514L22.7068 20.3428L22.7097 27.6171ZM19.1354 20.3428L12.9468 17.2485C12.537 19.5124 12.6484 21.8398 13.2725 24.0542C13.3125 24.1914 13.404 24.3399 13.5582 24.4742C15.6468 26.2171 17.1354 27.0342 19.1354 27.6171V20.3428Z" fill="#0E8FEB"/>
</g>
<defs>
<clipPath id="clip0_264_2149">
<rect width="40" height="40" fill="white" transform="translate(0.921875)"/>
</clipPath>
</defs>
</svg>
