<svg width="41" height="41" viewBox="0 0 41 41" fill="none" xmlns="http://www.w3.org/2000/svg">
<path d="M34.5669 26.8724L32.3004 25.5631C32.7106 25.1407 33.181 24.7813 33.6963 24.4966C34.0333 24.3066 34.2815 23.9912 34.387 23.6191C34.4925 23.247 34.4468 22.8483 34.2597 22.5098C34.0726 22.1712 33.7594 21.9203 33.3882 21.8116C33.017 21.7029 32.6179 21.7453 32.2778 21.9294C31.2937 22.474 30.4218 23.2001 29.708 24.0693L23.8344 20.6729L29.7066 17.2824C30.4203 18.1517 31.2923 18.8778 32.2764 19.4223C32.4451 19.5174 32.631 19.5781 32.8233 19.601C33.0155 19.6239 33.2105 19.6085 33.3968 19.5557C33.5831 19.5029 33.7571 19.4137 33.9087 19.2933C34.0604 19.1728 34.1866 19.0236 34.2803 18.8541C34.374 18.6846 34.4331 18.4982 34.4544 18.3058C34.4756 18.1133 34.4586 17.9185 34.4041 17.7327C34.3497 17.5468 34.259 17.3736 34.1373 17.223C34.0156 17.0724 33.8653 16.9473 33.695 16.8551C33.1797 16.5703 32.7094 16.2109 32.2991 15.7886L34.5656 14.4793C34.739 14.3866 34.8919 14.26 35.0154 14.1071C35.1389 13.9541 35.2303 13.7778 35.2843 13.5888C35.3383 13.3998 35.3537 13.2018 35.3297 13.0067C35.3056 12.8116 35.2426 12.6233 35.1444 12.453C35.0461 12.2827 34.9146 12.134 34.7577 12.0155C34.6008 11.8971 34.4217 11.8114 34.231 11.7635C34.0403 11.7157 33.842 11.7067 33.6478 11.737C33.4535 11.7674 33.2674 11.8365 33.1004 11.9402L30.8339 13.2488C30.6724 12.6821 30.5956 12.0947 30.6059 11.5056C30.6101 11.3126 30.5763 11.1207 30.5062 10.9409C30.4362 10.7611 30.3313 10.5969 30.1977 10.4577C30.064 10.3185 29.9042 10.207 29.7274 10.1297C29.5506 10.0523 29.3603 10.0106 29.1673 10.007H29.14C28.7557 10.0069 28.3868 10.1577 28.1125 10.4268C27.8383 10.696 27.6806 11.062 27.6735 11.4462C27.6528 12.5701 27.845 13.6876 28.2401 14.74L22.3679 18.1324V11.3522C23.4774 11.1689 24.5421 10.7769 25.5056 10.197C25.8388 9.99623 26.0786 9.67135 26.1722 9.2938C26.2658 8.91626 26.2057 8.51698 26.0049 8.1838C25.8042 7.85063 25.4793 7.61085 25.1017 7.51721C24.7242 7.42358 24.3249 7.48376 23.9917 7.68451C23.4866 7.98803 22.9394 8.21514 22.3679 8.35846V6.14063C22.3679 5.75167 22.2133 5.37865 21.9383 5.10362C21.6633 4.82858 21.2903 4.67407 20.9013 4.67407C20.5123 4.67407 20.1393 4.82858 19.8643 5.10362C19.5893 5.37865 19.4347 5.75167 19.4347 6.14063V8.35846C18.8632 8.21514 18.316 7.98803 17.8109 7.68451C17.4777 7.48376 17.0784 7.42358 16.7009 7.51721C16.3233 7.61085 15.9984 7.85063 15.7977 8.1838C15.5969 8.51698 15.5368 8.91626 15.6304 9.2938C15.724 9.67135 15.9638 9.99623 16.297 10.197C17.2605 10.7769 18.3252 11.1689 19.4347 11.3522V18.1324L13.5625 14.74C13.9582 13.6873 14.1509 12.5693 14.1305 11.4449C14.1233 11.0607 13.9657 10.6947 13.6914 10.4255C13.4171 10.1564 13.0482 10.0056 12.6639 10.0057H12.6353C12.4427 10.0092 12.2527 10.0507 12.0761 10.1277C11.8995 10.2047 11.7398 10.3157 11.6062 10.4545C11.4725 10.5932 11.3675 10.7569 11.2971 10.9362C11.2268 11.1155 11.1924 11.307 11.196 11.4996C11.2068 12.0895 11.1302 12.6779 10.9687 13.2454L8.70223 11.9402C8.53533 11.8406 8.3503 11.7752 8.1579 11.7478C7.96551 11.7204 7.76958 11.7315 7.5815 11.7804C7.39343 11.8294 7.21696 11.9152 7.06235 12.033C6.90774 12.1507 6.77808 12.298 6.6809 12.4663C6.58372 12.6346 6.52096 12.8206 6.49626 13.0133C6.47157 13.2061 6.48543 13.4019 6.53705 13.5892C6.58867 13.7766 6.67702 13.9518 6.79695 14.1047C6.91688 14.2577 7.06602 14.3852 7.23568 14.48L9.50217 15.7892C9.09192 16.2115 8.62155 16.5709 8.10628 16.8558C7.93599 16.948 7.78566 17.073 7.66394 17.2236C7.54222 17.3743 7.45154 17.5475 7.39712 17.7333C7.34271 17.9192 7.32563 18.1139 7.34689 18.3064C7.36815 18.4989 7.42731 18.6853 7.52097 18.8547C7.61463 19.0242 7.74092 19.1735 7.89257 19.2939C8.04422 19.4143 8.21821 19.5035 8.40451 19.5564C8.59081 19.6092 8.78573 19.6246 8.97802 19.6017C9.17031 19.5788 9.35615 19.5181 9.52484 19.4229C10.5089 18.8783 11.3808 18.1523 12.0946 17.2831L17.9682 20.6729L12.096 24.0633C11.3822 23.1941 10.5102 22.468 9.52617 21.9234C9.35749 21.8283 9.17164 21.7676 8.97935 21.7447C8.78707 21.7218 8.59215 21.7372 8.40585 21.79C8.21954 21.8428 8.04555 21.932 7.8939 22.0524C7.74226 22.1729 7.61596 22.3221 7.5223 22.4916C7.42864 22.6611 7.36948 22.8475 7.34822 23.0399C7.32697 23.2324 7.34404 23.4272 7.39846 23.613C7.45287 23.7989 7.54356 23.9721 7.66527 24.1227C7.78699 24.2733 7.93733 24.3984 8.10761 24.4906C8.62288 24.7754 9.09326 25.1348 9.5035 25.5571L7.23568 26.8724C7.06602 26.9672 6.91688 27.0947 6.79695 27.2476C6.67702 27.4006 6.58867 27.5758 6.53705 27.7632C6.48543 27.9505 6.47157 28.1463 6.49626 28.339C6.52096 28.5318 6.58372 28.7177 6.6809 28.886C6.77808 29.0543 6.90774 29.2016 7.06235 29.3194C7.21696 29.4372 7.39343 29.523 7.5815 29.572C7.76958 29.6209 7.96551 29.632 8.1579 29.6046C8.3503 29.5771 8.53533 29.5117 8.70223 29.4122L10.9687 28.1036C11.1302 28.6703 11.207 29.2577 11.1967 29.8468C11.1899 30.2353 11.3376 30.6107 11.6073 30.8904C11.8771 31.1701 12.2468 31.3313 12.6353 31.3387H12.6626C13.0469 31.3388 13.4158 31.188 13.6901 30.9189C13.9643 30.6497 14.122 30.2837 14.1292 29.8995C14.1498 28.7756 13.9576 27.6581 13.5625 26.6057L19.4347 23.2133V29.9935C18.3252 30.1768 17.2605 30.5688 16.297 31.1487C15.9638 31.3495 15.724 31.6744 15.6304 32.0519C15.5368 32.4294 15.5969 32.8287 15.7977 33.1619C15.9984 33.4951 16.3233 33.7349 16.7009 33.8285C17.0784 33.9221 17.4777 33.8619 17.8109 33.6612C18.316 33.3577 18.8632 33.1306 19.4347 32.9872V35.2051C19.4347 35.594 19.5893 35.9671 19.8643 36.2421C20.1393 36.5171 20.5123 36.6716 20.9013 36.6716C21.2903 36.6716 21.6633 36.5171 21.9383 36.2421C22.2133 35.9671 22.3679 35.594 22.3679 35.2051V32.9872C22.9394 33.1306 23.4866 33.3577 23.9917 33.6612C24.3249 33.8619 24.7242 33.9221 25.1017 33.8285C25.4793 33.7349 25.8042 33.4951 26.0049 33.1619C26.2057 32.8287 26.2658 32.4294 26.1722 32.0519C26.0786 31.6744 25.8388 31.3495 25.5056 31.1487C24.5421 30.5688 23.4774 30.1768 22.3679 29.9935V23.2133L28.2401 26.6057C27.8444 27.6584 27.6517 28.7764 27.6721 29.9008C27.6793 30.285 27.8369 30.6511 28.1112 30.9202C28.3855 31.1894 28.7544 31.3401 29.1387 31.34H29.1673C29.3599 31.3365 29.55 31.295 29.7265 31.218C29.9031 31.141 30.0628 31.03 30.1964 30.8912C30.3301 30.7525 30.4351 30.5888 30.5055 30.4095C30.5758 30.2302 30.6102 30.0387 30.6066 29.8462C30.5958 29.2562 30.6724 28.6678 30.8339 28.1003L33.1004 29.4089C33.2673 29.516 33.4542 29.5882 33.6498 29.6211C33.8454 29.6539 34.0456 29.6468 34.2384 29.6001C34.4311 29.5533 34.6124 29.468 34.7712 29.3492C34.93 29.2304 35.0631 29.0806 35.1624 28.9089C35.2617 28.7372 35.3251 28.5471 35.3488 28.3502C35.3725 28.1533 35.356 27.9536 35.3004 27.7632C35.2447 27.5729 35.151 27.3958 35.025 27.2426C34.8989 27.0895 34.7431 26.9636 34.5669 26.8724Z" fill="#0E8FEB"/>
</svg>
