<svg width="41" height="41" viewBox="0 0 41 41" fill="none" xmlns="http://www.w3.org/2000/svg">
<path d="M20.4225 12.3395C20.8947 12.3395 21.2908 12.1795 21.6108 11.8595C21.9308 11.5395 22.0903 11.144 22.0891 10.6729C22.088 10.2017 21.928 9.80619 21.6091 9.48619C21.2903 9.16619 20.8947 9.00619 20.4225 9.00619C19.9503 9.00619 19.5547 9.16619 19.2358 9.48619C18.9169 9.80619 18.7569 10.2017 18.7558 10.6729C18.7547 11.144 18.9147 11.5401 19.2358 11.8612C19.5569 12.1823 19.9525 12.3417 20.4225 12.3395ZM25.1308 12.3395H28.0475C28.8808 12.3395 29.603 12.6173 30.2141 13.1729C30.8253 13.7284 31.2003 14.409 31.3391 15.2145L33.7141 31.8812C33.853 32.8812 33.5964 33.7634 32.9441 34.5279C32.2919 35.2923 31.4514 35.674 30.4225 35.6729H10.4225C9.3947 35.6729 8.55414 35.2912 7.90081 34.5279C7.24748 33.7645 6.99081 32.8823 7.13081 31.8812L9.50581 15.2145C9.6447 14.409 10.0197 13.7284 10.6308 13.1729C11.2419 12.6173 11.9641 12.3395 12.7975 12.3395H15.7141C15.6308 12.0617 15.5614 11.7912 15.5058 11.5279C15.4503 11.2645 15.4225 10.9795 15.4225 10.6729C15.4225 9.28396 15.9086 8.10341 16.8808 7.13118C17.853 6.15896 19.0336 5.67285 20.4225 5.67285C21.8114 5.67285 22.9919 6.15896 23.9641 7.13118C24.9364 8.10341 25.4225 9.28396 25.4225 10.6729C25.4225 10.9784 25.3947 11.2634 25.3391 11.5279C25.2836 11.7923 25.2141 12.0629 25.1308 12.3395Z" fill="#515151"/>
</svg>
